<?xml version="1.0" encoding="UTF-8" standalone="no"?> <svg xmlns="http://www.w3.org/2000/svg" version="1.0" width="640.000000pt" height="640.000000pt" viewBox="0 0 640.000000 640.000000" preserveAspectRatio="xMidYMid meet"><g transform="translate(0.000000,640.000000) scale(0.100000,-0.100000)" fill="#000000" stroke="none"><path d="M6395 5530 c0 -481 1 -678 2 -438 2 241 2 635 0 875 -1 241 -2 44 -2 -437z"></path><path d="M3015 5938 c-2 -7 -27 -120 -55 -251 -49 -232 -71 -304 -90 -292 -6 4 -17 20 -26 37 -30 59 -152 384 -158 423 -4 21 -8 40 -9 41 -1 1 -19 -5 -39 -13 l-38 -15 -2 -221 -3 -222 -144 160 c-79 88 -147 161 -151 163 -4 1 -28 -6 -54 -18 l-47 -20 33 -33 c44 -45 168 -364 168 -432 0 -25 -4 -45 -9 -45 -8 0 -223 75 -273 95 -15 6 -16 10 -4 33 35 71 16 150 -47 196 -60 44 -134 20 -268 -87 l-78 -61 37 -32 c48 -41 266 -328 287 -377 11 -27 20 -36 28 -30 7 6 31 25 54 43 l43 33 -36 22 c-50 30 -146 155 -133 172 22 26 50 22 167 -21 176 -65 171 -64 226 -17 26 23 53 41 59 41 7 0 18 4 26 9 11 7 7 15 -18 37 -24 22 -46 66 -91 184 -33 85 -59 158 -58 162 2 3 66 -65 143 -152 79 -90 147 -158 155 -157 13 2 15 33 13 221 -1 127 2 215 7 210 5 -5 34 -74 66 -154 38 -97 57 -161 58 -192 0 -27 3 -48 6 -48 3 0 28 8 55 19 28 10 76 22 108 25 31 4 57 10 57 12 0 3 -10 18 -21 34 -20 27 -21 32 -9 94 9 49 17 66 29 67 9 0 47 3 84 8 l68 7 16 -35 c30 -71 33 -92 18 -129 l-15 -35 61 7 c34 3 70 6 80 6 24 0 24 15 -1 50 -11 15 -64 131 -119 256 -90 210 -101 229 -125 232 -15 2 -28 -2 -31 -10z m69 -235 l35 -82 -32 -5 c-69 -11 -117 -14 -117 -8 0 11 41 207 47 222 4 11 9 6 18 -15 7 -16 29 -67 49 -112z m-1103 -229 c35 -18 89 -97 89 -131 0 -35 -25 -78 -61 -104 -26 -18 -33 -19 -43 -8 -26 29 -146 188 -146 194 0 10 94 65 112 65 11 0 33 -7 49 -16z"></path><path d="M3660 5896 c0 -57 -82 -394 -110 -455 -12 -24 -20 -44 -18 -46 17 -12 206 -55 243 -55 144 0 215 170 109 258 l-35 29 29 6 c43 9 90 53 103 97 10 32 9 44 -7 76 -25 51 -75 78 -194 105 -52 12 -101 24 -107 26 -9 4 -13 -8 -13 -41z m190 -30 c79 -36 50 -191 -39 -211 -48 -10 -101 4 -101 27 0 17 33 161 45 196 5 15 50 9 95 -12z m-89 -237 c61 -21 79 -45 79 -108 0 -101 -54 -158 -141 -148 -27 3 -53 8 -58 11 -5 3 5 62 22 131 34 135 34 135 98 114z"></path><path d="M4170 5761 c0 -35 -188 -418 -219 -445 -11 -11 -21 -22 -21 -26 0 -3 36 -23 80 -45 44 -21 78 -40 77 -42 -2 -1 -49 16 -105 38 -102 40 -279 90 -382 109 -113 20 -320 30 -438 20 -465 -38 -800 -216 -1270 -674 l-142 -139 -38 11 c-30 9 -147 76 -170 97 -8 7 10 44 33 69 19 20 34 26 67 26 l43 0 -75 50 c-41 27 -78 49 -81 50 -4 0 2 -17 12 -37 10 -21 19 -44 19 -51 0 -20 -39 -82 -52 -82 -8 0 -188 109 -206 125 -5 5 62 108 79 122 8 7 46 13 84 15 l70 3 -63 33 c-34 18 -66 30 -71 28 -12 -8 -171 -263 -171 -275 0 -6 7 -11 15 -11 23 0 94 -39 249 -137 77 -48 139 -92 138 -98 -1 -5 -37 -12 -79 -15 l-78 -5 -5 -754 -5 -755 -124 -43 c-68 -23 -126 -45 -129 -48 -3 -2 -11 -53 -19 -111 -12 -94 -12 -109 2 -124 12 -13 17 -73 24 -328 6 -185 15 -320 21 -332 8 -14 21 -20 46 -20 31 0 34 -2 28 -24 -4 -18 -1 -27 16 -36 13 -7 19 -18 16 -28 -3 -9 -10 -75 -16 -147 -12 -129 -27 -224 -54 -320 l-13 -50 -64 -7 c-35 -3 -117 -9 -182 -13 -65 -4 -116 -10 -113 -13 14 -14 409 -32 886 -42 948 -18 3166 -6 3585 20 281 17 290 22 80 41 -94 8 -143 16 -148 25 -4 7 -13 11 -21 8 -22 -8 -56 29 -66 71 -6 23 -10 510 -10 1162 l0 1122 -56 42 c-80 61 -355 425 -390 516 -8 21 -23 105 -33 187 -21 163 -16 152 -103 217 l-28 20 0 -68 c0 -64 2 -69 30 -88 35 -23 44 -49 60 -165 7 -47 17 -101 24 -121 21 -61 281 -433 340 -486 29 -26 70 -72 90 -100 l36 -53 -1 -707 c-1 -390 -5 -721 -9 -738 -6 -23 -8 -14 -9 38 -1 44 -5 69 -13 72 -10 4 -12 115 -10 518 2 281 0 530 -3 553 l-6 41 -157 8 c-159 8 -262 9 -269 1 -2 -2 -5 -93 -6 -202 l-2 -199 -25 -4 c-14 -1 -76 0 -138 4 l-113 7 -65 131 c-36 71 -77 148 -90 169 -14 21 -22 43 -19 47 2 5 -2 14 -10 21 -8 7 -15 16 -15 21 0 5 33 25 73 45 125 63 207 114 207 130 0 30 -40 94 -59 94 -28 0 -52 11 -46 20 3 5 0 21 -5 36 -15 39 -4 42 14 3 l14 -34 1 35 c0 19 -5 45 -12 57 -6 12 -25 43 -40 70 -54 92 -137 433 -153 626 -7 87 -7 88 -35 94 -22 4 -29 11 -29 28 0 21 -6 22 -87 28 -49 4 -128 15 -178 27 -49 11 -130 29 -180 40 -56 13 -91 16 -93 10 -5 -13 -39 -13 -44 0 -1 5 -45 15 -96 22 -87 12 -93 14 -98 38 -3 14 -13 44 -22 68 -15 37 -22 43 -55 49 l-38 6 7 43 c8 53 -6 57 -29 9 -19 -40 -22 -70 -7 -88 97 -122 98 -123 79 -135 -10 -7 -23 -12 -27 -12 -8 0 -27 38 -48 95 -6 17 -8 16 -14 -12 -10 -46 -54 -116 -95 -152 -34 -30 -74 -43 -59 -20 3 6 1 15 -6 19 -8 5 -4 15 14 33 33 33 33 51 1 65 -29 13 -32 41 -13 121 6 28 8 54 4 58 -8 9 -96 -38 -96 -51 0 -11 -105 -2 -144 13 -46 18 -25 22 55 10 73 -12 76 -11 118 15 24 15 64 37 90 48 25 10 56 29 69 40 12 12 22 16 22 10 0 -7 -18 -25 -40 -41 -38 -27 -39 -30 -18 -33 13 -2 27 -13 33 -25 13 -30 31 -29 39 2 4 14 23 44 43 66 32 35 36 46 35 87 -3 68 -26 113 -75 144 -52 32 -107 48 -171 48 -73 0 -50 10 61 26 293 41 625 -9 938 -142 71 -31 142 -61 157 -67 22 -9 30 -8 46 6 26 24 35 22 92 -19 l49 -35 15 36 c22 51 241 350 283 384 l34 28 -49 37 c-27 20 -52 36 -55 36 -2 0 -7 -12 -10 -28 -6 -30 -227 -340 -275 -385 -26 -25 -32 -27 -56 -16 -14 7 -26 15 -26 19 0 4 16 34 35 66 19 31 33 59 31 61 -2 2 -27 -12 -56 -32 -28 -19 -61 -35 -71 -35 -11 0 -47 14 -79 30 l-60 30 105 210 c74 147 115 217 135 232 l30 22 -58 32 c-31 19 -60 34 -64 34 -5 0 -8 -13 -8 -29z m-1252 -541 c-66 -57 -86 -94 -89 -165 -2 -55 -5 -63 -38 -91 -72 -63 -87 -126 -25 -102 18 6 49 8 75 4 l46 -7 17 -61 c20 -73 103 -208 128 -208 11 0 15 -5 12 -14 -3 -8 -1 -17 5 -21 17 -10 13 -25 -6 -25 -10 0 -27 12 -40 28 -20 24 -22 25 -23 7 0 -25 28 -67 40 -60 5 3 16 -3 26 -12 9 -10 22 -18 28 -18 18 0 96 -54 96 -67 0 -36 62 -62 88 -36 9 9 19 5 41 -22 42 -50 49 -95 19 -126 -45 -47 -60 -66 -54 -72 3 -3 -1 -16 -9 -28 -14 -21 -13 -25 19 -58 24 -26 42 -36 64 -36 32 0 50 -14 31 -25 -5 -4 -8 -13 -5 -21 10 -27 -13 -23 -64 11 -29 19 -54 35 -56 35 -3 0 3 -15 12 -32 32 -63 95 -133 142 -158 33 -17 48 -32 50 -49 3 -21 1 -23 -22 -17 -24 6 -26 4 -27 -26 -1 -32 -1 -32 -10 -8 -7 21 -8 19 -4 -12 2 -21 0 -38 -6 -38 -5 0 -9 8 -9 17 0 9 -6 24 -13 32 -20 24 -49 109 -42 121 4 6 -9 32 -28 58 -19 26 -45 67 -57 92 -12 25 -30 54 -39 65 -10 11 -26 49 -36 85 -10 36 -21 69 -23 74 -6 11 -69 -109 -142 -271 -74 -163 -110 -223 -157 -259 -32 -24 -34 -29 -19 -39 24 -18 19 -69 -13 -122 -16 -27 -34 -65 -41 -85 l-12 -38 -284 0 -284 0 0 -88 c0 -49 -3 -136 -6 -194 l-7 -105 -63 -16 c-35 -10 -100 -17 -151 -17 -107 0 -379 -17 -405 -26 -17 -5 -18 22 -18 720 l0 726 81 0 c44 0 90 5 102 12 12 6 78 68 147 137 247 250 513 460 707 559 115 58 315 127 383 131 8 0 -6 -17 -32 -39z m225 0 c5 -4 -10 -4 -33 0 -22 4 -44 11 -48 15 -9 10 71 -4 81 -15z m91 -66 c3 -8 2 -12 -4 -9 -6 3 -10 10 -10 16 0 14 7 11 14 -7z m-288 -123 c16 -5 46 -12 68 -16 21 -3 36 -9 33 -12 -3 -2 -40 2 -82 11 -42 9 -88 13 -101 10 -15 -4 -24 -2 -24 5 0 13 66 15 106 2z m3 -241 c-1 -32 -2 -33 -9 -10 -4 14 -8 36 -9 50 -1 20 1 22 9 10 5 -8 9 -31 9 -50z m826 -160 c77 -20 159 -53 115 -46 -14 2 -72 16 -130 31 -132 35 -165 29 -195 -30 -17 -34 -20 -58 -18 -155 1 -83 -2 -109 -9 -96 -6 10 -11 64 -12 120 -1 110 20 190 52 200 26 7 119 -4 197 -24z m-404 -27 c-12 -20 -14 -14 -5 12 4 9 9 14 11 11 3 -2 0 -13 -6 -23z m651 -20 c19 -17 24 -58 8 -68 -6 -3 -10 4 -10 17 0 14 -6 32 -12 41 -11 14 -19 15 -47 7 -37 -10 -55 -5 -31 10 24 15 72 12 92 -7z m103 -23 c25 -11 -1 -11 -35 0 -20 6 -21 8 -5 8 11 0 29 -3 40 -8z m12 -287 c47 -106 94 -262 100 -334 5 -64 5 -65 -27 -93 -18 -15 -36 -23 -40 -19 -4 4 -12 28 -19 53 -14 49 -72 169 -102 212 -17 23 -69 181 -69 208 0 6 11 8 25 4 21 -5 25 -3 25 15 0 18 6 21 39 21 38 0 39 -1 68 -67z m-357 29 c0 -5 -25 -16 -55 -24 -30 -8 -55 -12 -55 -8 0 4 24 14 53 23 28 8 53 16 55 16 1 1 2 -3 2 -7z m190 -172 c0 -11 -2 -20 -4 -20 -2 0 -6 9 -9 20 -3 11 -1 20 4 20 5 0 9 -9 9 -20z m-855 -82 c-47 -93 -208 -338 -222 -338 -7 0 76 139 214 358 21 35 27 19 8 -20z m375 -28 c0 -5 -10 -10 -22 -10 -19 0 -20 2 -8 10 19 13 30 13 30 0z m234 -16 c3 -8 2 -12 -4 -9 -6 3 -10 10 -10 16 0 14 7 11 14 -7z m337 -76 c23 -46 50 -95 61 -110 11 -16 15 -28 9 -28 -5 0 -20 17 -33 37 -25 41 -89 183 -82 183 2 0 22 -37 45 -82z m-797 -64 c-3 -16 2 -49 11 -74 28 -78 33 -136 19 -219 -8 -42 -14 -96 -14 -120 l0 -44 -162 7 c-90 4 -166 10 -169 14 -4 4 11 38 33 77 38 68 39 71 33 136 -7 65 -6 69 30 126 21 32 62 92 92 134 l55 77 39 -43 c32 -35 38 -47 33 -71z m736 -106 c0 -5 -2 -8 -5 -8 -6 0 -65 116 -65 127 1 10 70 -109 70 -119z m340 117 c0 -8 -92 -65 -104 -65 -6 0 14 15 44 34 64 39 60 37 60 31z m-200 -135 c-6 -11 -13 -20 -16 -20 -2 0 0 9 6 20 6 11 13 20 16 20 2 0 0 -9 -6 -20z m-256 -65 c-3 -22 -7 -41 -8 -41 -13 -13 -95 -45 -123 -50 -21 -3 -47 -8 -58 -11 -11 -3 4 13 32 35 29 21 72 63 95 91 39 48 43 51 56 34 8 -12 11 -31 6 -58z m-454 43 c0 -19 -2 -20 -10 -8 -13 19 -13 30 0 30 6 0 10 -10 10 -22z m90 -18 c12 -7 11 -13 -10 -37 -14 -15 -26 -29 -26 -31 -1 -2 -17 1 -35 7 -26 7 -28 9 -11 10 12 1 23 7 23 14 1 6 2 17 4 22 1 6 3 13 3 18 3 10 34 9 52 -3z m-79 -33 c-10 -9 -11 -8 -5 6 3 10 9 15 12 12 3 -3 0 -11 -7 -18z m764 7 c-26 -20 -55 -36 -55 -30 0 5 63 46 70 46 3 -1 -4 -8 -15 -16z m-794 -65 c8 -15 8 -19 0 -15 -6 4 -11 3 -11 -3 0 -5 -7 -17 -16 -25 -18 -18 -11 -36 14 -36 43 -1 44 -15 5 -78 -34 -54 -41 -60 -63 -55 -14 3 -27 7 -29 9 -2 2 6 34 17 71 11 37 24 81 27 98 12 55 36 70 56 34z m39 -9 c0 -5 -2 -10 -4 -10 -3 0 -8 5 -11 10 -3 6 -1 10 4 10 6 0 11 -4 11 -10z m-635 -91 c-13 -24 -25 -40 -25 -36 0 13 41 89 46 84 2 -2 -7 -24 -21 -48z m1002 -44 c-2 -11 -18 -25 -30 -25 -4 0 -3 9 3 21 10 19 10 20 -9 10 -12 -7 -22 -7 -26 -2 -7 12 12 24 25 16 6 -3 10 -1 10 5 0 7 5 6 14 -2 8 -7 13 -17 13 -23z m947 -64 c3 -5 -1 -12 -10 -15 -25 -10 -34 -7 -34 9 0 16 35 21 44 6z m-804 -32 c-34 -30 -79 -53 -86 -46 -4 4 107 76 116 76 3 0 -11 -14 -30 -30z m-707 -8 c5 -5 6 -15 2 -22 -8 -12 -307 -10 -816 7 -188 7 -197 6 -202 -12 -3 -11 -5 -5 -6 15 l-1 34 507 -7 c279 -3 511 -10 516 -15z m1842 -160 c4 -93 4 -174 1 -180 -20 -32 -26 2 -26 159 0 169 0 170 -22 171 -13 1 -75 5 -138 9 l-115 7 146 1 147 2 7 -169z m-1686 133 c19 -24 21 -39 19 -168 l-2 -141 -5 137 c-7 153 -16 176 -65 164 -37 -9 -58 -59 -66 -156 l-7 -85 -1 100 c-1 55 1 117 4 138 7 37 7 37 55 37 39 0 51 -4 68 -26z m1488 -31 c-3 -10 -5 -4 -5 12 0 17 2 24 5 18 2 -7 2 -21 0 -30z m-778 -130 c23 -47 59 -111 78 -142 78 -122 73 -95 73 -375 l0 -254 -97 -8 c-91 -8 -98 -11 -101 -31 -2 -13 1 -23 7 -23 6 0 8 -99 4 -287 -3 -159 -6 -289 -7 -290 0 0 -13 9 -28 20 l-26 22 -5 295 c-4 290 -5 296 -32 380 -23 71 -33 123 -35 185 -1 14 35 175 59 268 11 42 28 134 37 202 9 69 20 125 23 125 4 0 26 -39 50 -87z m55 -4 c16 -27 26 -53 23 -55 -3 -3 -21 24 -40 61 -19 36 -30 61 -23 56 7 -6 25 -34 40 -62z m44 -94 c-3 -3 -9 2 -12 12 -6 14 -5 15 5 6 7 -7 10 -15 7 -18z m-542 -263 l1 -187 48 -150 c54 -171 75 -262 74 -320 0 -35 -4 -28 -30 55 -16 52 -55 167 -86 255 -70 199 -84 287 -60 392 15 65 41 143 49 143 2 0 4 -84 4 -188z m-256 159 c0 -15 -143 -50 -315 -76 -93 -14 -196 -32 -228 -41 -47 -12 -65 -12 -91 -3 -73 27 -176 -32 -176 -99 0 -17 -4 -34 -10 -37 -19 -11 -10 57 11 92 25 40 65 63 111 63 18 0 78 7 133 16 55 8 183 26 285 39 149 20 231 36 278 54 1 1 2 -3 2 -8z m1250 -1 c10 -6 -44 -10 -162 -10 -107 0 -179 4 -183 10 -8 13 325 13 345 0z m425 -341 c-3 -184 -7 -496 -9 -694 -2 -198 -4 -396 -6 -440 -2 -75 -3 -77 -11 -35 -4 25 -8 226 -8 448 -1 244 -5 402 -10 402 -6 0 -3 12 5 28 11 22 14 86 14 328 0 165 3 304 7 308 20 20 23 -40 18 -345z m-2934 264 c-3 -80 -8 -80 -30 5 -7 23 -17 42 -24 42 -49 0 -585 -41 -601 -46 -12 -3 -32 -19 -46 -35 -23 -27 -28 -28 -60 -19 -63 18 -81 13 -127 -37 -40 -43 -43 -45 -43 -22 0 26 36 67 77 88 27 14 73 14 107 1 21 -8 31 -5 56 16 35 30 57 33 405 59 121 9 222 19 224 21 2 2 18 4 35 4 l31 0 -4 -77z m2376 -3 c1 -22 -2 -40 -8 -40 -5 0 -9 18 -9 40 0 22 4 40 8 40 4 0 8 -18 9 -40z m-28 -32 c0 -28 -2 -30 -9 -13 -12 28 -12 45 0 45 6 0 10 -15 9 -32z m-142 -30 c-3 -7 -5 -2 -5 12 0 14 2 19 5 13 2 -7 2 -19 0 -25z m670 -50 c-2 -18 -4 -6 -4 27 0 33 2 48 4 33 2 -15 2 -42 0 -60z m-1462 2 c-3 -5 -21 -10 -40 -10 -19 0 -112 -11 -207 -24 -226 -32 -294 -40 -288 -33 4 4 220 37 440 66 92 12 102 12 95 1z m792 -32 c-3 -8 -6 -5 -6 6 -1 11 2 17 5 13 3 -3 4 -12 1 -19z m-797 -50 c0 -18 23 -98 51 -178 98 -284 109 -321 124 -412 19 -121 19 -149 0 -142 -13 5 -15 -8 -15 -87 1 -52 5 -113 9 -136 5 -26 4 -46 -2 -52 -5 -5 -26 -40 -47 -78 -34 -64 -38 -68 -68 -65 -47 5 -92 -42 -92 -97 0 -23 7 -46 16 -55 8 -9 12 -20 9 -26 -3 -5 2 -10 12 -11 10 0 13 -3 7 -5 -6 -3 -23 0 -38 6 -51 19 -121 222 -160 465 -9 55 -19 110 -21 121 -4 20 -2 21 39 17 70 -8 70 -6 74 346 l4 304 39 49 c21 28 39 54 39 59 0 5 5 9 10 9 6 0 10 -15 10 -32z m797 -80 c-2 -18 -4 -4 -4 32 0 36 2 50 4 33 2 -18 2 -48 0 -65z m-1807 49 c0 -2 -12 -14 -27 -28 l-28 -24 24 28 c23 25 31 32 31 24z m-40 -188 c0 -46 -23 -51 -28 -6 -4 31 9 30 -189 17 -184 -12 -365 -19 -361 -14 16 15 290 39 496 42 l82 2 0 -41z m1460 -214 c5 -71 8 -204 8 -295 -1 -154 -2 -149 -9 83 -7 218 -14 307 -34 407 -3 14 2 5 11 -20 9 -25 20 -103 24 -175z m-2126 191 c-21 -15 -30 -14 -19 3 3 6 14 11 23 11 13 0 13 -2 -4 -14z m-554 -146 c15 -170 31 -207 105 -256 36 -24 30 -37 -7 -18 -111 58 -121 79 -126 274 -5 192 11 192 28 0z m3700 -471 c0 -380 -3 -480 -12 -476 -23 7 -19 957 3 957 5 0 9 -211 9 -481z m-2600 429 c-16 -7 -145 -12 -345 -13 -328 -2 -316 0 75 14 328 12 300 12 270 -1z m2035 -8 c-3 -5 -32 -9 -63 -8 l-57 1 45 7 c69 11 82 11 75 0z m335 -38 c-9 -3 -9 -6 -1 -11 14 -9 16 -46 13 -396 -2 -295 -2 -299 -21 -280 -18 19 -19 41 -23 369 -3 341 -3 349 17 356 15 6 21 2 23 -14 2 -11 -1 -22 -8 -24z m-153 -309 c-7 -6 -35 92 -29 101 3 5 11 -15 19 -44 7 -29 12 -55 10 -57z m-1447 -40 c17 -32 51 -128 76 -213 25 -85 54 -184 65 -219 24 -79 24 -91 -1 -91 -24 0 -47 48 -125 265 -30 83 -65 177 -79 210 -36 86 -34 98 21 104 6 0 26 -25 43 -56z m-1564 -35 c-11 -109 -85 -471 -99 -480 -17 -11 -55 -10 -62 2 -12 19 15 194 56 360 22 91 42 171 44 178 2 6 19 12 36 12 l32 0 -7 -72z m94 50 c0 -81 -66 -349 -112 -460 -23 -53 -38 -63 -31 -20 11 60 94 478 98 490 2 6 14 12 25 12 14 0 20 -7 20 -22z m723 -208 c5 -85 5 -191 2 -236 l-7 -81 -111 -6 c-62 -4 -219 -7 -351 -7 l-238 0 6 24 c3 13 44 114 91 224 47 110 85 207 85 214 0 8 3 18 7 22 4 3 119 5 257 4 l251 -3 8 -155z m533 73 c80 -150 92 -170 117 -210 26 -41 97 -179 97 -188 0 -3 -125 -4 -277 -3 l-278 3 -3 215 c-1 118 0 225 3 237 7 28 18 30 167 32 l127 1 47 -87z m1121 -154 l1 -144 -18 105 c-11 66 -15 111 -9 122 7 13 4 18 -11 23 -11 3 -20 15 -20 25 0 14 6 18 28 16 l27 -3 2 -144z m-273 73 c8 -14 -30 -68 -68 -97 -58 -44 -58 -25 1 68 22 35 54 49 67 29z m961 -202 c0 -26 -5 -45 -12 -47 -9 -3 -13 10 -13 47 0 37 4 50 13 48 7 -3 12 -22 12 -48z m-1100 26 l50 -14 -72 -1 c-66 -1 -93 9 -60 22 19 8 29 7 82 -7z m1092 -132 c-3 -3 -12 -4 -19 -1 -8 3 -5 6 6 6 11 1 17 -2 13 -5z"></path><path d="M2938 4637 c-13 -31 -9 -140 7 -194 11 -38 26 -60 61 -89 25 -22 61 -54 80 -72 36 -35 45 -32 18 7 -13 18 -14 25 -4 31 8 5 8 9 -4 13 -9 4 -16 15 -16 26 0 12 -16 31 -40 48 -22 15 -40 34 -40 41 0 7 -4 11 -9 8 -5 -3 -7 -15 -4 -26 3 -11 2 -20 -1 -20 -15 0 -28 60 -35 150 -3 58 -9 88 -13 77z"></path><path d="M3240 4161 c0 -6 4 -13 10 -16 6 -3 7 1 4 9 -7 18 -14 21 -14 7z"></path><path d="M3225 4130 c3 -5 11 -10 16 -10 6 0 7 5 4 10 -3 6 -11 10 -16 10 -6 0 -7 -4 -4 -10z"></path><path d="M4745 5344 c-33 -29 -57 -53 -54 -54 4 0 26 7 49 15 61 21 104 19 135 -8 l26 -22 -170 -163 c-116 -111 -182 -167 -208 -176 l-38 -13 55 -51 54 -50 27 46 c15 27 96 112 184 196 l158 150 18 -23 c23 -28 24 -71 5 -135 -8 -26 -11 -46 -7 -44 4 2 29 27 55 57 l48 54 -129 132 c-70 72 -133 134 -138 137 -6 3 -38 -18 -70 -48z"></path><path d="M1550 5195 c-24 -24 -42 -46 -39 -47 2 -2 21 -12 41 -23 51 -27 325 -272 349 -312 12 -18 24 -33 27 -32 4 0 24 20 45 44 l38 44 -35 18 c-49 25 -344 290 -362 325 -8 15 -16 28 -17 28 -2 0 -23 -20 -47 -45z"></path><path d="M4430 5047 c0 -90 23 -234 40 -251 7 -7 8 4 4 34 -3 25 -9 101 -12 169 -5 86 -11 126 -19 129 -10 3 -13 -18 -13 -81z"></path><path d="M5080 4975 l-65 -34 71 -1 c55 0 77 -4 96 -20 26 -20 94 -118 87 -124 -2 -3 -132 -14 -289 -26 -157 -12 -291 -23 -297 -25 -8 -3 25 -64 88 -165 l101 -160 66 37 c93 50 94 53 16 47 -87 -7 -117 10 -169 96 -20 33 -36 63 -34 64 4 4 537 46 572 46 9 0 17 5 17 11 0 18 -174 289 -185 288 -5 0 -39 -15 -75 -34z"></path><path d="M6390 865 l0 -855 -752 -3 -753 -2 758 -3 757 -2 0 860 c0 473 -2 860 -5 860 -3 0 -5 -385 -5 -855z"></path><path d="M398 3 c221 -2 583 -2 805 0 221 1 40 2 -403 2 -443 0 -624 -1 -402 -2z"></path><path d="M1638 3 c7 -3 16 -2 19 1 4 3 -2 6 -13 5 -11 0 -14 -3 -6 -6z"></path><path d="M4803 3 c15 -2 37 -2 50 0 12 2 0 4 -28 4 -27 0 -38 -2 -22 -4z"></path></g></svg> 